# xmcd CD database file generated by RipIT.
#
# Track frame offsets:
#	150
#	22710
#	42119
#	70383
#	88349
#	113567
#	131599
#	152323
#	179305
#	204000
#	226534
#	245876
#	267018
#	293692
#	310642
#
# Disc length: 4384 seconds
#
# Revision: 2
# Processed by: cddbd v1.5.1PL2 Copyright (c) Steve Scherf et al.
# Submitted via: RipIT 3.4 www.suwald.com/ripit/ripit.html at Tue Mar 21 11:32:42 CET 2006.
#
DISCID=b4111e0f
DTITLE=Sade - The Very Best
DYEAR=1994
DGENRE=Pop
TTITLE0=Smooth Operator
TTITLE1=Love Is Stronger Than Pride
TTITLE2=Is It A Crime
TTITLE3=Paradise
TTITLE4=No Ordinary Love
TTITLE5=Your Love Is A King
TTITLE6=The Sweetest Taboo
TTITLE7=Hang On To Your Love
TTITLE8=Why Can't We Live Together
TTITLE9=Never As Good As The First Time
TTITLE10=Nothing Can Come Between Us
TTITLE11=I Will Be Your Friend
TTITLE12=Turn My Back On You
TTITLE13=Tar Baby
TTITLE14=Feel No Pain
EXTD=ID3G: 13 YEAR: 1994
EXTT0=
EXTT1=
EXTT2=
EXTT3=
EXTT4=
EXTT5=
EXTT6=
EXTT7=
EXTT8=
EXTT9=
EXTT10=
EXTT11=
EXTT12=
EXTT13=
EXTT14=
PLAYORDER=
